<?xml version="1.0" encoding="utf-8"?>
<svg version="1.1" id="Ebene_1" xmlns="http://www.w3.org/2000/svg" xmlns:xlink="http://www.w3.org/1999/xlink" x="0px" y="0px"
	 viewBox="0 0 150 150" style="enable-background:new 0 0 150 150;" xml:space="preserve">
<g>
	<path fill="#0E0E0F" d="M54,108.4c-9.1-1.5-15.5-2.9-22.4-5.1C18,99,11.1,90.2,12.3,78.6c0.8-7.8,4.5-14.2,12.9-22.1
		c8.1-7.8,23.8-18.9,24.9-17.8c0.3,0.5-0.2,5.5-1.2,11.3c-2,11.3-2.3,16.8-1.1,18.6c1.5,2.3,5.6,3.6,13.5,4.2l8.2,0.7V91v17.5
		l-6.5,0.1C59.4,108.7,55.4,108.6,54,108.4z"/>
	<path fill="#0E0E0F" d="M79.5,107.9c-0.3-0.8-0.4-8.9-0.3-17.9l0.3-16.5l8.2-0.7c7.9-0.6,12-1.9,13.5-4.2c1.2-1.8,0.9-7.3-1.1-18.6
		c-1-5.8-1.5-10.8-1.2-11.3c1.1-1.1,16.8,10,24.9,17.8c4.2,3.9,8.5,9.1,9.9,11.9c3,6,4,14,2.3,19.1c-1.9,5.9-8.3,12.1-14.8,14.5
		C106.9,107.4,80.7,111,79.5,107.9z"/>
</g>
</svg>
