<svg viewBox="0 0 120 120" width="120" height="120" xmlns="http://www.w3.org/2000/svg"><defs><linearGradient id="pfg-whisper-0qzmj" x1="0" y1="0" x2="0" y2="1"><stop offset="0" stop-color="#D50C0C"></stop><stop offset="1" stop-color="#A50A0A"></stop></linearGradient></defs><rect width="120" height="120" fill="url(#pfg-whisper-0qzmj)"></rect><svg x="35.5" y="19" width="49" height="28" viewBox="121 386 1247 705"><g fill="#ffffff"><path d="M540 1084 c-91 -15 -155 -29 -224 -51 -136 -43 -205 -131 -193 -247 8 -78 45 -142 129 -221 81 -78 238 -189 249 -178 3 5 -2 55 -12 113 -20 113 -23 168 -11 186 15 23 56 36 135 42 l82 7 0 175 0 175 -65 1 c-36 1 -76 0 -90 -2z"></path><path d="M795 1079 c-3 -8 -4 -89 -3 -179 l3 -165 82 -7 c79 -6 120 -19 135 -42 12 -18 9 -73 -11 -186 -10 -58 -15 -108 -12 -113 11 -11 168 100 249 178 42 39 85 91 99 119 30 60 40 140 23 191 -19 59 -83 121 -148 145 -143 54 -405 90 -417 59z"></path></g></svg><svg x="37" y="56" width="46" height="46" viewBox="0 0 24 24" fill="none" stroke="#ffffff" stroke-width="2.2" stroke-linecap="round" stroke-linejoin="round"><line x1="4" y1="10" x2="4" y2="14"></line><line x1="8" y1="7" x2="8" y2="17"></line><line x1="12" y1="4" x2="12" y2="20"></line><line x1="16" y1="8" x2="16" y2="16"></line><line x1="20" y1="11" x2="20" y2="13"></line></svg></svg>