<!DOCTYPE svg PUBLIC "-//W3C//DTD SVG 20010904//EN" "http://www.w3.org/TR/2001/REC-SVG-20010904/DTD/svg10.dtd">
<svg version="1.0" xmlns="http://www.w3.org/2000/svg" width="150px" height="150px" viewBox="0 0 1500 1500" preserveAspectRatio="xMidYMid meet"><g fill="#ffffff" stroke="none">
 <path d="M540 1084 c-91 -15 -155 -29 -224 -51 -136 -43 -205 -131 -193 -247 8 -78 45 -142 129 -221 81 -78 238 -189 249 -178 3 5 -2 55 -12 113 -20 113 -23 168 -11 186 15 23 56 36 135 42 l82 7 0 175 0 175 -65 1 c-36 1 -76 0 -90 -2z"/>
 <path d="M795 1079 c-3 -8 -4 -89 -3 -179 l3 -165 82 -7 c79 -6 120 -19 135 -42 12 -18 9 -73 -11 -186 -10 -58 -15 -108 -12 -113 11 -11 168 100 249 178 42 39 85 91 99 119 30 60 40 140 23 191 -19 59 -83 121 -148 145 -143 54 -405 90 -417 59z"/>
 </g>

<g fill="#d50c0c" stroke="none">
 <path d="M0 750 l0 -750 750 0 750 0 0 750 0 750 -750 0 -750 0 0 -750z m680 161 l0 -158 -74 -6 c-83 -6 -132 -27 -148 -63 -11 -24 -5 -94 19 -238 l6 -39 -79 54 c-109 75 -201 164 -231 222 -51 102 -38 214 32 276 46 40 175 80 335 105 14 2 51 4 83 5 l57 1 0 -159z m395 130 c175 -42 237 -81 265 -167 17 -50 7 -131 -23 -191 -30 -58 -122 -147 -231 -222 l-79 -54 6 39 c24 144 30 214 19 238 -16 36 -65 57 -148 63 l-74 6 0 160 0 160 93 -7 c50 -3 128 -15 172 -25z"/>
 </g>

</svg>